<svg version="1.1" id="Layer_1" xmlns="http://www.w3.org/2000/svg" xmlns:xlink="http://www.w3.org/1999/xlink" x="0px" y="0px"
	 width="100%" viewBox="0 0 500 200" enable-background="new 0 0 500 200" xml:space="preserve">
<path fill="#000000" opacity="1.000000" stroke="none" 
	d="
M353.000000,201.000000 
	C235.333359,201.000000 118.166710,201.000000 1.000047,201.000000 
	C1.000031,134.333359 1.000031,67.666733 1.000016,1.000074 
	C167.666611,1.000049 334.333221,1.000049 500.999878,1.000025 
	C500.999908,67.666588 500.999908,134.333176 500.999939,200.999878 
	C451.833344,201.000000 402.666656,201.000000 353.000000,201.000000 
M58.978649,135.245987 
	C58.979881,111.931259 58.988930,88.616539 58.978001,65.301811 
	C58.974304,57.413429 55.363598,51.483143 47.662292,50.154343 
	C39.775383,48.793522 31.567183,49.164143 23.495546,49.038754 
	C14.118966,48.893093 7.165164,55.244659 7.078474,64.623581 
	C6.858374,88.435875 6.922297,112.252037 7.055236,136.065628 
	C7.097271,143.595596 13.329768,151.342636 19.684862,151.923096 
	C26.396864,152.536148 33.231617,153.465622 39.873913,152.822647 
	C52.252495,151.624451 57.665359,148.739685 58.978649,135.245987 
M430.566956,133.924088 
	C430.701630,124.767914 433.487671,115.072166 425.877228,107.871735 
	C427.236359,105.088692 429.647003,102.314636 429.808624,99.415230 
	C430.288086,90.814354 430.359344,82.124367 429.647034,73.547546 
	C429.197815,68.138039 422.598511,62.359531 417.423676,62.093113 
	C405.868439,61.498207 394.291016,61.332989 382.722504,60.997719 
	C379.313141,60.898911 377.894318,62.273888 377.928497,65.963188 
	C378.096680,84.104340 378.002777,102.247910 378.004120,120.390625 
	C378.004791,129.545181 378.027557,138.699783 378.006927,147.854294 
	C377.998749,151.474945 378.975281,153.606216 383.229980,152.068024 
	C384.409424,151.641602 385.869873,151.987747 387.201385,151.987503 
	C396.194092,151.985840 405.198303,151.702225 414.176331,152.065201 
	C423.349731,152.436081 430.767853,144.833313 430.566956,133.924088 
M109.997597,65.785736 
	C109.997597,79.476448 109.997597,93.167152 109.997597,106.857864 
	C109.589447,106.981857 109.181297,107.105850 108.773148,107.229851 
	C108.086342,106.269714 107.249901,105.383202 106.735649,104.338158 
	C100.919769,92.519157 94.684746,80.874168 89.557510,68.761192 
	C86.698029,62.005737 82.512718,60.168892 75.876305,60.910694 
	C72.658226,61.270412 70.995277,62.426979 70.996384,65.735352 
	C71.005585,93.210487 71.041702,120.685776 70.942535,148.160568 
	C70.929298,151.829330 73.258545,152.875641 75.889442,152.845367 
	C79.765488,152.800766 83.632553,151.977066 88.512573,151.356979 
	C88.512573,136.653656 88.512573,121.602493 88.512573,106.551323 
	C88.959129,106.498680 89.405685,106.446037 89.852242,106.393394 
	C96.897308,120.555229 103.923676,134.726456 111.022018,148.861542 
	C111.606407,150.025269 112.583321,151.723343 113.542389,151.841873 
	C117.884941,152.378571 122.286621,152.436920 126.978523,152.683884 
	C126.978523,122.503075 126.995857,93.543678 126.904388,64.584625 
	C126.901276,63.599525 125.839485,61.793331 125.211792,61.766659 
	C120.682892,61.574169 116.131279,61.630768 111.608192,61.930374 
	C111.010124,61.969986 110.532669,63.830532 109.997597,65.785736 
M365.998413,117.499847 
	C365.998932,105.007652 366.156586,92.512848 365.949127,80.024109 
	C365.789673,70.425224 361.981903,64.768242 353.778687,62.368927 
	C351.766571,61.780415 349.503326,62.112980 347.413910,61.715382 
	C339.213257,60.154903 331.046692,60.453339 323.214081,63.135014 
	C317.536987,65.078697 314.244873,70.045723 314.144928,75.772781 
	C313.787384,96.253731 313.936371,116.745216 314.053223,137.231812 
	C314.092529,144.114502 319.431702,151.247131 325.904816,151.738937 
	C335.178986,152.443558 344.612305,152.616058 353.842255,151.680267 
	C358.436829,151.214432 363.300812,148.002747 364.017914,142.405243 
	C365.032959,134.482208 365.371002,126.472420 365.998413,117.499847 
M485.333527,102.058060 
	C477.819275,99.715904 470.264404,97.490891 462.831390,94.914314 
	C461.616577,94.493225 460.234894,92.561493 460.160461,91.257713 
	C460.005798,88.548691 460.268707,85.650856 461.154022,83.106972 
	C461.719116,81.483223 463.490570,79.857681 465.119781,79.147934 
	C466.659576,78.477112 468.738770,79.168678 470.547974,78.967033 
	C474.727448,78.501221 476.379700,80.897514 476.965271,84.453430 
	C478.206085,91.987762 478.170685,92.110428 485.665344,91.941246 
	C488.802368,91.870438 491.925568,91.187943 494.998138,90.790901 
	C494.998138,86.428703 495.329010,82.729958 494.934357,79.110329 
	C493.873718,69.383026 490.514038,63.312935 481.394135,62.232552 
	C473.186615,61.260254 464.749451,61.628345 456.458557,62.137581 
	C449.142761,62.586922 444.309235,66.441551 443.152710,75.592361 
	C442.122650,83.742340 442.199707,92.044174 442.015839,100.284073 
	C441.925293,104.341301 443.610535,107.614105 447.802399,108.912697 
	C454.545685,111.001678 461.341553,112.921913 468.076569,115.036400 
	C477.062531,117.857567 477.038483,117.908081 477.003235,127.561638 
	C476.988678,131.547913 476.920135,135.213593 471.212646,135.050705 
	C460.406555,134.742279 461.103882,136.247406 460.851562,128.184326 
	C460.796783,126.433510 459.157837,123.387512 457.981049,123.251434 
	C453.118011,122.689125 448.152252,123.015724 443.007965,123.015724 
	C443.007965,128.066895 442.995361,132.541489 443.010681,137.015991 
	C443.039368,145.393402 448.575378,151.562576 456.985413,151.926117 
	C464.461578,152.249313 471.964050,152.046524 479.453491,151.957413 
	C486.841827,151.869507 492.985870,147.329422 493.818970,140.019257 
	C494.823700,131.202835 494.760284,122.254402 494.950836,113.358650 
	C495.109406,105.957260 493.301697,103.932312 485.333527,102.058060 
M252.926392,146.379715 
	C255.574417,148.227219 258.125916,151.477158 260.888031,151.667282 
	C270.328003,152.317078 279.871826,152.328613 289.314880,151.685837 
	C293.838379,151.377945 298.042084,148.429886 299.578308,143.776810 
	C300.928040,139.688553 301.849762,135.260162 301.890625,130.971802 
	C302.107971,108.150932 301.995941,85.326859 301.983307,62.503902 
	C301.975769,48.927101 301.960632,49.117577 288.429901,48.900204 
	C283.911926,48.827618 282.861603,50.341698 282.892212,54.609718 
	C283.070190,79.429909 282.878326,104.252800 283.064697,129.072876 
	C283.101227,133.936188 280.593201,134.902039 276.707977,135.009354 
	C269.121918,135.218887 267.289581,134.167816 266.986877,129.363846 
	C266.268127,117.955444 266.268127,117.955345 254.757935,118.014359 
	C253.758423,118.019485 252.568237,117.686684 251.804871,118.114456 
	C250.709595,118.728233 249.145386,119.885292 249.130630,120.831459 
	C248.998489,129.310989 248.170425,137.927841 252.926392,146.379715 
M223.956055,107.334236 
	C226.180359,102.180450 228.399155,97.024269 230.630249,91.873413 
	C234.202652,83.626022 237.835770,75.404320 241.326019,67.122353 
	C242.289032,64.837257 243.221680,62.080616 239.673187,61.111763 
	C229.520676,58.339790 223.516312,61.477394 220.032013,71.146439 
	C219.977936,71.296478 220.054962,71.497658 219.991898,71.640015 
	C216.689468,79.094231 213.378479,86.544670 209.417084,95.461555 
	C205.881241,87.624748 202.572372,81.243752 200.076431,74.559212 
	C194.993591,60.946640 195.028305,60.768677 182.009537,60.966663 
	C176.788071,61.046066 175.767487,62.675697 177.990448,67.774300 
	C182.933441,79.111626 187.788666,90.492165 193.002045,101.705200 
	C197.720917,111.854668 201.555115,122.035934 200.076187,133.586578 
	C199.531097,137.843796 200.087448,142.232773 199.973251,146.557220 
	C199.875000,150.277679 200.904419,152.502823 205.243546,152.041428 
	C208.041794,151.743866 210.922150,151.739975 213.720612,152.033813 
	C218.045242,152.487900 219.095123,150.282684 219.034805,146.551941 
	C218.935257,140.395264 219.310715,134.217819 218.940750,128.082001 
	C218.505173,120.857887 219.553024,114.130966 223.956055,107.334236 
M139.000992,92.500000 
	C138.999817,109.332832 138.991989,126.165657 139.000015,142.998489 
	C139.004639,152.699142 139.015106,152.684296 148.415466,152.007050 
	C149.907486,151.899567 151.418137,151.923569 152.913239,152.008560 
	C158.169830,152.307312 163.419571,152.762344 168.679352,152.958069 
	C172.831055,153.112564 177.021805,153.242142 181.135727,152.812729 
	C182.512497,152.669022 184.698715,150.854355 184.807358,149.649521 
	C185.234909,144.908066 184.982529,140.105301 184.982529,134.914673 
	C175.764938,134.914673 167.025482,134.914673 158.022278,134.914673 
	C158.022278,114.355225 157.900894,94.218781 158.064163,74.084648 
	C158.176422,60.239231 157.936432,60.935200 144.629166,60.951481 
	C140.651321,60.956348 138.895813,62.421104 138.965820,66.501587 
	C139.108765,74.832146 139.004211,83.166946 139.000992,92.500000 
z"/>
<path fill="#D2DCE4" opacity="1.000000" stroke="none" 
	d="
M58.979095,135.710968 
	C57.665359,148.739685 52.252495,151.624451 39.873913,152.822647 
	C33.231617,153.465622 26.396864,152.536148 19.684862,151.923096 
	C13.329768,151.342636 7.097271,143.595596 7.055236,136.065628 
	C6.922297,112.252037 6.858374,88.435875 7.078474,64.623581 
	C7.165164,55.244659 14.118966,48.893093 23.495546,49.038754 
	C31.567183,49.164143 39.775383,48.793522 47.662292,50.154343 
	C55.363598,51.483143 58.974304,57.413429 58.978001,65.301811 
	C58.988930,88.616539 58.979881,111.931259 58.979095,135.710968 
M24.996706,123.435326 
	C24.995380,125.267082 25.124249,127.110092 24.967018,128.928360 
	C24.578016,133.426971 26.506691,135.444351 31.034880,135.022049 
	C32.355274,134.898911 33.697567,135.022873 35.029591,135.009949 
	C40.697922,134.954956 41.996162,133.717346 42.001930,128.133942 
	C42.020859,109.816322 42.014545,91.498634 41.994358,73.181007 
	C41.987553,67.007980 40.799099,65.988945 33.835281,65.984734 
	C26.151215,65.980087 25.007174,66.851990 24.998686,72.997078 
	C24.975922,89.482788 24.994629,105.968552 24.996706,123.435326 
z"/>
<path fill="#D2DCE4" opacity="1.000000" stroke="none" 
	d="
M430.305756,134.297791 
	C430.767853,144.833313 423.349731,152.436081 414.176331,152.065201 
	C405.198303,151.702225 396.194092,151.985840 387.201385,151.987503 
	C385.869873,151.987747 384.409424,151.641602 383.229980,152.068024 
	C378.975281,153.606216 377.998749,151.474945 378.006927,147.854294 
	C378.027557,138.699783 378.004791,129.545181 378.004120,120.390625 
	C378.002777,102.247910 378.096680,84.104340 377.928497,65.963188 
	C377.894318,62.273888 379.313141,60.898911 382.722504,60.997719 
	C394.291016,61.332989 405.868439,61.498207 417.423676,62.093113 
	C422.598511,62.359531 429.197815,68.138039 429.647034,73.547546 
	C430.359344,82.124367 430.288086,90.814354 429.808624,99.415230 
	C429.647003,102.314636 427.236359,105.088692 425.877228,107.871735 
	C433.487671,115.072166 430.701630,124.767914 430.305756,134.297791 
M412.992554,85.719948 
	C412.917175,79.361931 412.560944,79.011032 406.148438,79.000969 
	C403.659424,78.997063 401.082123,78.609711 398.714722,79.146080 
	C397.306458,79.465141 395.265015,81.166084 395.169800,82.376442 
	C394.771637,87.439514 395.001953,92.552017 395.001953,97.999924 
	C397.578278,97.999924 399.697998,97.978386 401.817230,98.003494 
	C413.686676,98.144135 413.157532,98.626846 412.992554,85.719948 
M412.976562,119.081528 
	C410.451233,116.443108 399.640625,114.516808 396.514740,116.301003 
	C395.803833,116.706787 395.089661,117.812103 395.070984,118.611679 
	C394.944702,124.010704 395.005157,129.414093 395.005157,134.996628 
	C399.906097,134.996628 404.263397,135.422867 408.460236,134.788147 
	C410.153595,134.532059 412.431763,132.149277 412.797058,130.391983 
	C413.490906,127.054420 412.998383,123.470230 412.976562,119.081528 
z"/>
<path fill="#D2DCE4" opacity="1.000000" stroke="none" 
	d="
M109.998474,65.316742 
	C110.532669,63.830532 111.010124,61.969986 111.608192,61.930374 
	C116.131279,61.630768 120.682892,61.574169 125.211792,61.766659 
	C125.839485,61.793331 126.901276,63.599525 126.904388,64.584625 
	C126.995857,93.543678 126.978523,122.503075 126.978523,152.683884 
	C122.286621,152.436920 117.884941,152.378571 113.542389,151.841873 
	C112.583321,151.723343 111.606407,150.025269 111.022018,148.861542 
	C103.923676,134.726456 96.897308,120.555229 89.852242,106.393394 
	C89.405685,106.446037 88.959129,106.498680 88.512573,106.551323 
	C88.512573,121.602493 88.512573,136.653656 88.512573,151.356979 
	C83.632553,151.977066 79.765488,152.800766 75.889442,152.845367 
	C73.258545,152.875641 70.929298,151.829330 70.942535,148.160568 
	C71.041702,120.685776 71.005585,93.210487 70.996384,65.735352 
	C70.995277,62.426979 72.658226,61.270412 75.876305,60.910694 
	C82.512718,60.168892 86.698029,62.005737 89.557510,68.761192 
	C94.684746,80.874168 100.919769,92.519157 106.735649,104.338158 
	C107.249901,105.383202 108.086342,106.269714 108.773148,107.229851 
	C109.181297,107.105850 109.589447,106.981857 109.997597,106.857864 
	C109.997597,93.167152 109.997597,79.476448 109.998474,65.316742 
z"/>
<path fill="#D2DCE4" opacity="1.000000" stroke="none" 
	d="
M365.998413,117.999786 
	C365.371002,126.472420 365.032959,134.482208 364.017914,142.405243 
	C363.300812,148.002747 358.436829,151.214432 353.842255,151.680267 
	C344.612305,152.616058 335.178986,152.443558 325.904816,151.738937 
	C319.431702,151.247131 314.092529,144.114502 314.053223,137.231812 
	C313.936371,116.745216 313.787384,96.253731 314.144928,75.772781 
	C314.244873,70.045723 317.536987,65.078697 323.214081,63.135014 
	C331.046692,60.453339 339.213257,60.154903 347.413910,61.715382 
	C349.503326,62.112980 351.766571,61.780415 353.778687,62.368927 
	C361.981903,64.768242 365.789673,70.425224 365.949127,80.024109 
	C366.156586,92.512848 365.998932,105.007652 365.998413,117.999786 
M345.806946,79.293037 
	C343.992126,79.197105 342.177521,79.023781 340.362427,79.018356 
	C331.573395,78.992096 331.005951,79.572708 330.996185,88.488327 
	C330.983429,100.123177 330.987793,111.758034 330.984711,123.392891 
	C330.981628,135.173218 331.419983,135.524536 343.189056,135.037018 
	C347.264771,134.868179 349.021118,132.968018 349.008972,128.978134 
	C348.964569,114.351601 349.072052,99.723709 348.872833,85.099739 
	C348.849121,83.359055 347.290283,81.639275 345.806946,79.293037 
z"/>
<path fill="#D2DCE4" opacity="1.000000" stroke="none" 
	d="
M485.671051,102.287949 
	C493.301697,103.932312 495.109406,105.957260 494.950836,113.358650 
	C494.760284,122.254402 494.823700,131.202835 493.818970,140.019257 
	C492.985870,147.329422 486.841827,151.869507 479.453491,151.957413 
	C471.964050,152.046524 464.461578,152.249313 456.985413,151.926117 
	C448.575378,151.562576 443.039368,145.393402 443.010681,137.015991 
	C442.995361,132.541489 443.007965,128.066895 443.007965,123.015724 
	C448.152252,123.015724 453.118011,122.689125 457.981049,123.251434 
	C459.157837,123.387512 460.796783,126.433510 460.851562,128.184326 
	C461.103882,136.247406 460.406555,134.742279 471.212646,135.050705 
	C476.920135,135.213593 476.988678,131.547913 477.003235,127.561638 
	C477.038483,117.908081 477.062531,117.857567 468.076569,115.036400 
	C461.341553,112.921913 454.545685,111.001678 447.802399,108.912697 
	C443.610535,107.614105 441.925293,104.341301 442.015839,100.284073 
	C442.199707,92.044174 442.122650,83.742340 443.152710,75.592361 
	C444.309235,66.441551 449.142761,62.586922 456.458557,62.137581 
	C464.749451,61.628345 473.186615,61.260254 481.394135,62.232552 
	C490.514038,63.312935 493.873718,69.383026 494.934357,79.110329 
	C495.329010,82.729958 494.998138,86.428703 494.998138,90.790901 
	C491.925568,91.187943 488.802368,91.870438 485.665344,91.941246 
	C478.170685,92.110428 478.206085,91.987762 476.965271,84.453430 
	C476.379700,80.897514 474.727448,78.501221 470.547974,78.967033 
	C468.738770,79.168678 466.659576,78.477112 465.119781,79.147934 
	C463.490570,79.857681 461.719116,81.483223 461.154022,83.106972 
	C460.268707,85.650856 460.005798,88.548691 460.160461,91.257713 
	C460.234894,92.561493 461.616577,94.493225 462.831390,94.914314 
	C470.264404,97.490891 477.819275,99.715904 485.671051,102.287949 
z"/>
<path fill="#D2DCE5" opacity="1.000000" stroke="none" 
	d="
M252.641998,146.120209 
	C248.170425,137.927841 248.998489,129.310989 249.130630,120.831459 
	C249.145386,119.885292 250.709595,118.728233 251.804871,118.114456 
	C252.568237,117.686684 253.758423,118.019485 254.757935,118.014359 
	C266.268127,117.955345 266.268127,117.955444 266.986877,129.363846 
	C267.289581,134.167816 269.121918,135.218887 276.707977,135.009354 
	C280.593201,134.902039 283.101227,133.936188 283.064697,129.072876 
	C282.878326,104.252800 283.070190,79.429909 282.892212,54.609718 
	C282.861603,50.341698 283.911926,48.827618 288.429901,48.900204 
	C301.960632,49.117577 301.975769,48.927101 301.983307,62.503902 
	C301.995941,85.326859 302.107971,108.150932 301.890625,130.971802 
	C301.849762,135.260162 300.928040,139.688553 299.578308,143.776810 
	C298.042084,148.429886 293.838379,151.377945 289.314880,151.685837 
	C279.871826,152.328613 270.328003,152.317078 260.888031,151.667282 
	C258.125916,151.477158 255.574417,148.227219 252.641998,146.120209 
z"/>
<path fill="#D2DCE4" opacity="1.000000" stroke="none" 
	d="
M223.736053,107.659668 
	C219.553024,114.130966 218.505173,120.857887 218.940750,128.082001 
	C219.310715,134.217819 218.935257,140.395264 219.034805,146.551941 
	C219.095123,150.282684 218.045242,152.487900 213.720612,152.033813 
	C210.922150,151.739975 208.041794,151.743866 205.243546,152.041428 
	C200.904419,152.502823 199.875000,150.277679 199.973251,146.557220 
	C200.087448,142.232773 199.531097,137.843796 200.076187,133.586578 
	C201.555115,122.035934 197.720917,111.854668 193.002045,101.705200 
	C187.788666,90.492165 182.933441,79.111626 177.990448,67.774300 
	C175.767487,62.675697 176.788071,61.046066 182.009537,60.966663 
	C195.028305,60.768677 194.993591,60.946640 200.076431,74.559212 
	C202.572372,81.243752 205.881241,87.624748 209.417084,95.461555 
	C213.378479,86.544670 216.689468,79.094231 219.991898,71.640015 
	C220.054962,71.497658 219.977936,71.296478 220.032013,71.146439 
	C223.516312,61.477394 229.520676,58.339790 239.673187,61.111763 
	C243.221680,62.080616 242.289032,64.837257 241.326019,67.122353 
	C237.835770,75.404320 234.202652,83.626022 230.630249,91.873413 
	C228.399155,97.024269 226.180359,102.180450 223.736053,107.659668 
z"/>
<path fill="#D1DCE5" opacity="1.000000" stroke="none" 
	d="
M139.001312,92.000000 
	C139.004211,83.166946 139.108765,74.832146 138.965820,66.501587 
	C138.895813,62.421104 140.651321,60.956348 144.629166,60.951481 
	C157.936432,60.935200 158.176422,60.239231 158.064163,74.084648 
	C157.900894,94.218781 158.022278,114.355225 158.022278,134.914673 
	C167.025482,134.914673 175.764938,134.914673 184.982529,134.914673 
	C184.982529,140.105301 185.234909,144.908066 184.807358,149.649521 
	C184.698715,150.854355 182.512497,152.669022 181.135727,152.812729 
	C177.021805,153.242142 172.831055,153.112564 168.679352,152.958069 
	C163.419571,152.762344 158.169830,152.307312 152.913239,152.008560 
	C151.418137,151.923569 149.907486,151.899567 148.415466,152.007050 
	C139.015106,152.684296 139.004639,152.699142 139.000015,142.998489 
	C138.991989,126.165657 138.999817,109.332832 139.001312,92.000000 
z"/>
<path fill="#000000" opacity="1.000000" stroke="none" 
	d="
M24.996784,122.944809 
	C24.994629,105.968552 24.975922,89.482788 24.998686,72.997078 
	C25.007174,66.851990 26.151215,65.980087 33.835281,65.984734 
	C40.799099,65.988945 41.987553,67.007980 41.994358,73.181007 
	C42.014545,91.498634 42.020859,109.816322 42.001930,128.133942 
	C41.996162,133.717346 40.697922,134.954956 35.029591,135.009949 
	C33.697567,135.022873 32.355274,134.898911 31.034880,135.022049 
	C26.506691,135.444351 24.578016,133.426971 24.967018,128.928360 
	C25.124249,127.110092 24.995380,125.267082 24.996784,122.944809 
z"/>
<path fill="#000000" opacity="1.000000" stroke="none" 
	d="
M412.989258,86.184174 
	C413.157532,98.626846 413.686676,98.144135 401.817230,98.003494 
	C399.697998,97.978386 397.578278,97.999924 395.001953,97.999924 
	C395.001953,92.552017 394.771637,87.439514 395.169800,82.376442 
	C395.265015,81.166084 397.306458,79.465141 398.714722,79.146080 
	C401.082123,78.609711 403.659424,78.997063 406.148438,79.000969 
	C412.560944,79.011032 412.917175,79.361931 412.989258,86.184174 
z"/>
<path fill="#000000" opacity="1.000000" stroke="none" 
	d="
M412.987579,119.535004 
	C412.998383,123.470230 413.490906,127.054420 412.797058,130.391983 
	C412.431763,132.149277 410.153595,134.532059 408.460236,134.788147 
	C404.263397,135.422867 399.906097,134.996628 395.005157,134.996628 
	C395.005157,129.414093 394.944702,124.010704 395.070984,118.611679 
	C395.089661,117.812103 395.803833,116.706787 396.514740,116.301003 
	C399.640625,114.516808 410.451233,116.443108 412.987579,119.535004 
z"/>
<path fill="#000000" opacity="1.000000" stroke="none" 
	d="
M346.125000,79.601425 
	C347.290283,81.639275 348.849121,83.359055 348.872833,85.099739 
	C349.072052,99.723709 348.964569,114.351601 349.008972,128.978134 
	C349.021118,132.968018 347.264771,134.868179 343.189056,135.037018 
	C331.419983,135.524536 330.981628,135.173218 330.984711,123.392891 
	C330.987793,111.758034 330.983429,100.123177 330.996185,88.488327 
	C331.005951,79.572708 331.573395,78.992096 340.362427,79.018356 
	C342.177521,79.023781 343.992126,79.197105 346.125000,79.601425 
z"/>
</svg>